<?xml version="1.0" encoding="utf-8"?>
<svg version="1.1" xmlns:xlink="http://www.w3.org/1999/xlink" width="70px" height="70px" xmlns="http://www.w3.org/2000/svg">
  <g transform="matrix(1 0 0 1 -651 -4351 )">
    <path d="M 54.231770833333336 29.166666666666664  C 54.231770833333336 29.956597222222218  53.943142361111114 30.640190972222218  53.365885416666664 31.217447916666664  L 34.13411458333333 50.44921875  C 33.55685763888889 51.026475694444436  32.87326388888889 51.31510416666667  32.08333333333333 51.31510416666667  C 31.293402777777782 51.31510416666667  30.609809027777782 51.026475694444436  30.032552083333332 50.44921875  L 16.634114583333336 37.05078125  C 16.05685763888889 36.47352430555555  15.768229166666666 35.78993055555555  15.768229166666666 35  C 15.768229166666666 34.21006944444444  16.05685763888889 33.52647569444444  16.634114583333336 32.94921875  L 21.282552083333332 28.30078125  C 21.859809027777782 27.723524305555554  22.543402777777782 27.434895833333336  23.333333333333332 27.434895833333336  C 24.12326388888889 27.434895833333336  24.80685763888889 27.723524305555554  25.384114583333332 28.30078125  L 32.08333333333333 35  L 44.615885416666664 22.467447916666664  C 45.193142361111114 21.890190972222218  45.876736111111114 21.6015625  46.666666666666664 21.6015625  C 47.45659722222223 21.6015625  48.14019097222223 21.890190972222218  48.717447916666664 22.467447916666664  L 53.365885416666664 27.115885416666664  C 53.943142361111114 27.69314236111111  54.231770833333336 28.37673611111111  54.231770833333336 29.166666666666664  Z M 56.46484375 47.44140625  C 58.68272569444444 43.643663194444436  59.791666666666664 39.49652777777778  59.791666666666664 35  C 59.791666666666664 30.503472222222218  58.68272569444444 26.356336805555554  56.46484375 22.55859375  C 54.246961805555564 18.760850694444436  51.239149305555564 15.753038194444438  47.44140625 13.53515625  C 43.64366319444444 11.317274305555555  39.49652777777778 10.208333333333336  35 10.208333333333336  C 30.50347222222222 10.208333333333336  26.356336805555557 11.317274305555555  22.55859375 13.53515625  C 18.760850694444446 15.753038194444438  15.753038194444445 18.760850694444436  13.53515625 22.55859375  C 11.317274305555557 26.356336805555554  10.208333333333334 30.503472222222218  10.208333333333334 35  C 10.208333333333334 39.49652777777778  11.317274305555557 43.643663194444436  13.53515625 47.44140625  C 15.753038194444445 51.23914930555555  18.760850694444446 54.24696180555556  22.55859375 56.46484375  C 26.356336805555557 58.68272569444444  30.50347222222222 59.791666666666664  35 59.791666666666664  C 39.49652777777778 59.791666666666664  43.64366319444444 58.68272569444444  47.44140625 56.46484375  C 51.239149305555564 54.24696180555556  54.246961805555564 51.23914930555555  56.46484375 47.44140625  Z M 65.30598958333334 17.431640625  C 68.4353298611111 22.794053819444436  70 28.6501736111111  70 35  C 70 41.34982638888889  68.4353298611111 47.20594618055555  65.30598958333334 52.568359375  C 62.176649305555564 57.93077256944444  57.93077256944444 62.17664930555556  52.568359375 65.30598958333334  C 47.205946180555564 68.43532986111111  41.34982638888889 70  35 70  C 28.650173611111114 70  22.794053819444446 68.43532986111111  17.431640625 65.30598958333334  C 12.069227430555557 62.17664930555556  7.8233506944444455 57.93077256944444  4.694010416666667 52.568359375  C 1.5646701388888886 47.20594618055555  0 41.34982638888889  0 35  C 0 28.6501736111111  1.5646701388888886 22.794053819444436  4.694010416666667 17.431640625  C 7.8233506944444455 12.069227430555555  12.069227430555557 7.8233506944444375  17.431640625 4.694010416666664  C 22.794053819444446 1.5646701388888828  28.650173611111114 0  35 0  C 41.34982638888889 0  47.205946180555564 1.5646701388888828  52.568359375 4.694010416666664  C 57.93077256944444 7.8233506944444375  62.176649305555564 12.069227430555555  65.30598958333334 17.431640625  Z " fill-rule="nonzero" fill="#16d59b" stroke="none" transform="matrix(1 0 0 1 651 4351 )" />
  </g>
</svg>